<svg width="160" height="57" viewBox="0 0 160 57" fill="none" xmlns="http://www.w3.org/2000/svg">
<path d="M0 0V27.4884H4.09744V17.7443C4.09744 15.5452 5.84265 13.839 8.15694 13.839C10.4712 13.839 12.1785 15.5452 12.1785 17.7443V27.4884H16.2759V16.6068C16.2759 12.7774 13.3546 9.93375 9.371 9.93375C6.48761 9.93375 4.89416 11.4504 4.09744 12.5499V0H0Z" fill="white"/>
<path d="M19.9329 10.4266V27.4884H24.0304V10.4266H19.9329ZM19.4018 5.00479C19.4018 6.48348 20.502 7.58302 21.9816 7.58302C23.4613 7.58302 24.5995 6.48348 24.5995 5.00479C24.5995 3.48819 23.4613 2.38865 21.9816 2.38865C20.502 2.38865 19.4018 3.48819 19.4018 5.00479Z" fill="white"/>
<path d="M33.8605 27.9813C37.5785 27.9813 40.6137 26.3131 40.6137 22.6353C40.6137 20.1708 39.2858 18.6163 36.1368 17.5168L32.6464 16.3414C31.5841 15.9623 31.1289 15.5831 31.1289 14.9385C31.1289 13.9528 32.2291 13.4599 33.519 13.4599C35.2642 13.4599 36.2507 14.1802 36.5162 15.166L40.3481 14.5215C39.9308 11.7537 37.5785 9.93375 33.8225 9.93375C30.1804 9.93375 27.2211 11.4883 27.2211 15.2419C27.2211 17.6684 28.4352 19.0713 31.3186 20.0192L34.809 21.1187C36.1748 21.5737 36.7059 22.0666 36.7059 22.787C36.7059 23.8486 35.4919 24.4173 33.9743 24.4173C32.0015 24.4173 30.9012 23.5832 30.5977 22.4078L26.7658 22.9765C27.2211 26.0098 29.6872 27.9813 33.8605 27.9813Z" fill="white"/>
<path d="M43.4227 10.4266V27.4884H47.5201V17.4409C47.5201 15.3935 49.0756 13.839 51.0864 13.839C53.1351 13.839 54.6527 15.3935 54.6527 17.4409V27.4884H58.7501V17.4409C58.7501 15.3935 60.3056 13.839 62.3164 13.839C64.3651 13.839 65.8827 15.3935 65.8827 17.4409V27.4884H69.9422V16.2656C69.9422 12.6636 67.0588 9.93375 63.1511 9.93375C59.9262 9.93375 58.3328 11.7916 57.7258 12.7395C56.5876 11.0333 54.6527 9.93375 52.3384 9.93375C49.7585 9.93375 48.2409 11.2987 47.5201 12.2466V10.4266H43.4227Z" fill="white"/>
<path d="M73.5814 10.4266V27.4884H77.6788V10.4266H73.5814ZM73.0503 5.00479C73.0503 6.48348 74.1505 7.58302 75.6301 7.58302C77.1098 7.58302 78.2479 6.48348 78.2479 5.00479C78.2479 3.48819 77.1098 2.38865 75.6301 2.38865C74.1505 2.38865 73.0503 3.48819 73.0503 5.00479Z" fill="white"/>
<path d="M81.3249 27.4884H85.4223V0H81.3249V27.4884Z" fill="white"/>
<path d="M88.4234 18.9575C88.4234 24.114 92.407 27.9813 97.6805 27.9813C101.171 27.9813 104.092 26.2372 105.648 23.5832L101.664 22.4078C100.716 23.5074 99.3119 24.2277 97.6805 24.2277C95.2145 24.2277 93.2796 22.6732 92.6725 20.4741H106.217C106.293 19.9813 106.331 19.4504 106.331 18.9575C106.331 13.839 102.461 9.93375 97.415 9.93375C92.2932 9.93375 88.4234 13.839 88.4234 18.9575ZM97.3391 13.6873C99.6154 13.6873 101.474 15.166 102.119 17.2893H92.7105C93.3175 15.166 95.1765 13.6873 97.3391 13.6873Z" fill="white"/>
<path d="M0 39.247V56.3087H4.09743V46.9058C4.09743 44.6688 5.80471 42.9626 8.04312 42.9626C8.65015 42.9626 9.25718 43.1143 9.75039 43.3039V38.792C9.59863 38.7541 9.40893 38.7541 9.21924 38.7541C6.44967 38.7541 4.85622 40.2707 4.09743 41.3323V39.247H0Z" fill="white"/>
<path d="M10.9517 47.7779C10.9517 52.9343 14.9353 56.8016 20.2089 56.8016C23.6993 56.8016 26.6206 55.0576 28.1761 52.4035L24.1925 51.2281C23.244 52.3277 21.8403 53.0481 20.2089 53.0481C17.7428 53.0481 15.8079 51.4935 15.2009 49.2945H28.7452C28.8211 48.8016 28.859 48.2708 28.859 47.7779C28.859 42.6593 24.9892 38.7541 19.9433 38.7541C14.8215 38.7541 10.9517 42.6593 10.9517 47.7779ZM19.8674 42.5077C22.1438 42.5077 24.0028 43.9863 24.6478 46.1096H15.2388C15.8459 43.9863 17.7049 42.5077 19.8674 42.5077Z" fill="white"/>
<path d="M37.7878 56.8016C41.5058 56.8016 44.541 55.1334 44.541 51.4556C44.541 48.9911 43.2131 47.4366 40.0641 46.3371L36.5737 45.1617C35.5114 44.7826 35.0562 44.4034 35.0562 43.7589C35.0562 42.7731 36.1564 42.2802 37.4463 42.2802C39.1915 42.2802 40.178 43.0006 40.4435 43.9863L44.2754 43.3418C43.8581 40.574 41.5058 38.7541 37.7498 38.7541C34.1077 38.7541 31.1484 40.3086 31.1484 44.0622C31.1484 46.4887 32.3625 47.8916 35.2459 48.8395L38.7363 49.939C40.1021 50.394 40.6332 50.8869 40.6332 51.6073C40.6332 52.6689 39.4192 53.2376 37.9016 53.2376C35.9288 53.2376 34.8285 52.4035 34.525 51.2281L30.6931 51.7969C31.1484 54.8301 33.6145 56.8016 37.7878 56.8016Z" fill="white"/>
<path d="M46.705 47.7779C46.705 52.9343 50.6886 56.8016 55.9622 56.8016C59.4526 56.8016 62.3739 55.0576 63.9294 52.4035L59.9458 51.2281C58.9973 52.3277 57.5936 53.0481 55.9622 53.0481C53.4961 53.0481 51.5612 51.4935 50.9542 49.2945H64.4985C64.5744 48.8016 64.6123 48.2708 64.6123 47.7779C64.6123 42.6593 60.7425 38.7541 55.6966 38.7541C50.5748 38.7541 46.705 42.6593 46.705 47.7779ZM55.6207 42.5077C57.8971 42.5077 59.7561 43.9863 60.4011 46.1096H50.9921C51.5992 43.9863 53.4582 42.5077 55.6207 42.5077Z" fill="white"/>
<path d="M66.712 47.7779C66.712 52.9343 70.3162 56.8016 75.0587 56.8016C77.0315 56.8016 78.8147 56.1192 80.2184 54.9438V56.3087H84.2779V39.247H80.2184V40.6119C78.8147 39.4365 77.0315 38.7541 75.0587 38.7541C70.3162 38.7541 66.712 42.6593 66.712 47.7779ZM75.5519 42.8489C78.1317 42.8489 80.1425 44.9721 80.1425 47.7779C80.1425 50.5836 78.1317 52.7068 75.5519 52.7068C72.972 52.7068 70.9612 50.5836 70.9612 47.7779C70.9612 44.9721 72.972 42.8489 75.5519 42.8489Z" fill="white"/>
<path d="M87.9568 39.247V56.3087H92.0543V46.9058C92.0543 44.6688 93.7615 42.9626 95.9999 42.9626C96.607 42.9626 97.214 43.1143 97.7072 43.3039V38.792C97.5554 38.7541 97.3657 38.7541 97.1761 38.7541C94.4065 38.7541 92.813 40.2707 92.0543 41.3323V39.247H87.9568Z" fill="white"/>
<path d="M107.938 56.8016C111.884 56.8016 115.071 54.5267 116.399 51.1523L112.263 49.939C111.542 51.6073 109.911 52.7068 107.938 52.7068C105.244 52.7068 103.158 50.5836 103.158 47.7779C103.158 44.9721 105.244 42.8489 107.938 42.8489C109.911 42.8489 111.542 43.9484 112.263 45.6167L116.399 44.3655C115.071 41.029 111.884 38.7541 107.938 38.7541C102.778 38.7541 98.9085 42.6214 98.9085 47.7779C98.9085 52.9343 102.778 56.8016 107.938 56.8016Z" fill="white"/>
<path d="M119.005 28.8203V56.3087H123.102V46.5646C123.102 44.3655 124.847 42.6593 127.162 42.6593C129.476 42.6593 131.183 44.3655 131.183 46.5646V56.3087H135.281V45.4271C135.281 41.5977 132.359 38.7541 128.376 38.7541C125.492 38.7541 123.899 40.2707 123.102 41.3702V28.8203H119.005Z" fill="white"/>
<path fill-rule="evenodd" clip-rule="evenodd" d="M145.857 44.8884C144.159 44.8884 142.782 43.5119 142.782 41.8138C142.782 40.1158 144.159 38.7393 145.857 38.7393C147.555 38.7393 148.931 40.1158 148.931 41.8138C148.931 43.5119 147.555 44.8884 145.857 44.8884ZM154.466 56.6946C151.409 56.6946 148.932 54.2169 148.932 51.1604C148.932 48.104 151.409 45.6262 154.466 45.6262C157.522 45.6262 160 48.104 160 51.1604C160 54.2169 157.522 56.6946 154.466 56.6946Z" fill="white"/>
</svg>
