<svg width="385" height="154" viewBox="0 0 385 154" fill="none" xmlns="http://www.w3.org/2000/svg">
<path d="M134.2 126.2C129 126.2 124.2 125.44 119.8 123.92C115.4 122.4 111.88 120.48 109.24 118.16C106.6 115.76 105.28 113.24 105.28 110.6C105.28 109.24 105.64 107.8 106.36 106.28C107.08 104.68 108.04 103.32 109.24 102.2C110.52 101.08 111.92 100.52 113.44 100.52C114.88 100.52 116.2 100.96 117.4 101.84C118.68 102.72 120.04 103.76 121.48 104.96C123 106.16 124.72 107.2 126.64 108.08C128.64 108.96 131.04 109.4 133.84 109.4C135.68 109.4 137.48 109.16 139.24 108.68C141.08 108.12 142.56 107.28 143.68 106.16C144.88 104.96 145.48 103.4 145.48 101.48C145.48 99.4 144.8 97.64 143.44 96.2C142.08 94.68 140.24 93.32 137.92 92.12C135.68 90.92 133.2 89.72 130.48 88.52C127.84 87.24 125.16 85.88 122.44 84.44C119.72 82.92 117.2 81.16 114.88 79.16C112.64 77.08 110.84 74.6 109.48 71.72C108.12 68.84 107.44 65.4 107.44 61.4C107.44 56.92 108.32 53.12 110.08 50C111.84 46.8 114.2 44.24 117.16 42.32C120.12 40.32 123.4 38.88 127 38C130.68 37.04 134.4 36.56 138.16 36.56C139.76 36.56 141.88 36.68 144.52 36.92C147.16 37.16 149.8 37.64 152.44 38.36C155.16 39.08 157.44 40.16 159.28 41.6C161.12 42.96 162.04 44.8 162.04 47.12C162.04 48.16 161.76 49.48 161.2 51.08C160.72 52.6 159.92 53.96 158.8 55.16C157.76 56.36 156.36 56.96 154.6 56.96C153.16 56.96 151.8 56.6 150.52 55.88C149.32 55.08 147.76 54.32 145.84 53.6C144 52.8 141.44 52.4 138.16 52.4C135.36 52.4 133.04 52.76 131.2 53.48C129.44 54.12 128.16 55 127.36 56.12C126.56 57.16 126.16 58.32 126.16 59.6C126.16 61.28 126.84 62.76 128.2 64.04C129.56 65.24 131.36 66.4 133.6 67.52C135.92 68.56 138.4 69.68 141.04 70.88C143.76 72 146.48 73.36 149.2 74.96C151.92 76.48 154.4 78.32 156.64 80.48C158.96 82.64 160.8 85.28 162.16 88.4C163.52 91.52 164.2 95.24 164.2 99.56C164.2 105.32 162.88 110.2 160.24 114.2C157.68 118.12 154.16 121.12 149.68 123.2C145.2 125.2 140.04 126.2 134.2 126.2ZM181.624 125C178.904 125 176.664 124.4 174.904 123.2C173.224 122 172.384 120.68 172.384 119.24V73.52C172.384 71.84 173.224 70.48 174.904 69.44C176.664 68.4 178.904 67.88 181.624 67.88C183.864 67.88 185.784 68.4 187.384 69.44C188.984 70.48 189.784 71.84 189.784 73.52V76.28C191.144 73.96 193.144 71.88 195.784 70.04C198.424 68.12 201.704 67.16 205.624 67.16C208.904 67.16 211.784 68.28 214.264 70.52C216.744 72.76 218.584 75.64 219.784 79.16C221.864 75.08 224.504 72.08 227.704 70.16C230.984 68.16 234.344 67.16 237.784 67.16C241.544 67.16 245.064 68.16 248.344 70.16C251.704 72.08 254.424 74.92 256.504 78.68C258.584 82.44 259.624 87 259.624 92.36V119.24C259.624 120.68 258.704 122 256.864 123.2C255.024 124.4 252.824 125 250.264 125C247.784 125 245.624 124.4 243.784 123.2C241.944 122 241.024 120.68 241.024 119.24V92.36C241.024 90.36 240.624 88.68 239.824 87.32C239.104 85.96 238.104 84.96 236.824 84.32C235.624 83.6 234.344 83.24 232.984 83.24C231.704 83.24 230.464 83.6 229.264 84.32C228.144 84.96 227.184 85.96 226.384 87.32C225.664 88.6 225.304 90.28 225.304 92.36V119.36C225.304 121.36 224.304 122.8 222.304 123.68C220.384 124.56 218.264 125 215.944 125C213.784 125 211.704 124.56 209.704 123.68C207.704 122.8 206.704 121.36 206.704 119.36V92.48C206.704 90.48 206.304 88.8 205.504 87.44C204.704 86.08 203.664 85.08 202.384 84.44C201.184 83.72 199.904 83.36 198.544 83.36C197.264 83.36 196.024 83.68 194.824 84.32C193.704 84.96 192.784 85.96 192.064 87.32C191.344 88.6 190.984 90.28 190.984 92.36V119.24C190.984 120.68 190.064 122 188.224 123.2C186.384 124.4 184.184 125 181.624 125ZM279.242 56.84C276.522 56.84 274.202 55.96 272.282 54.2C270.362 52.44 269.402 50.44 269.402 48.2C269.402 45.88 270.362 43.88 272.282 42.2C274.202 40.52 276.522 39.68 279.242 39.68C281.962 39.68 284.242 40.52 286.082 42.2C288.002 43.88 288.962 45.88 288.962 48.2C288.962 50.44 288.002 52.44 286.082 54.2C284.242 55.96 281.962 56.84 279.242 56.84ZM279.242 125C276.522 125 274.282 124.4 272.522 123.2C270.842 122 270.002 120.68 270.002 119.24V73.52C270.002 71.84 270.842 70.48 272.522 69.44C274.282 68.4 276.522 67.88 279.242 67.88C281.802 67.88 284.002 68.4 285.842 69.44C287.682 70.48 288.602 71.84 288.602 73.52V119.24C288.602 120.68 287.682 122 285.842 123.2C284.002 124.4 281.802 125 279.242 125ZM309.618 125C306.898 125 304.658 124.4 302.898 123.2C301.218 122 300.378 120.68 300.378 119.24V40.88C300.378 39.2 301.218 37.84 302.898 36.8C304.658 35.76 306.898 35.24 309.618 35.24C312.178 35.24 314.378 35.76 316.218 36.8C318.058 37.84 318.978 39.2 318.978 40.88V119.24C318.978 120.68 318.058 122 316.218 123.2C314.378 124.4 312.178 125 309.618 125ZM359.022 126.2C353.102 126.2 347.862 125.16 343.302 123.08C338.742 120.92 335.142 117.92 332.502 114.08C329.942 110.24 328.662 105.8 328.662 100.76V92C328.662 87.52 329.902 83.4 332.382 79.64C334.862 75.88 338.182 72.88 342.342 70.64C346.502 68.32 351.142 67.16 356.262 67.16C360.902 67.16 365.142 68.12 368.982 70.04C372.902 71.96 376.062 74.64 378.462 78.08C380.862 81.44 382.062 85.4 382.062 89.96C382.062 93.56 381.462 96.16 380.262 97.76C379.142 99.28 377.662 100.24 375.822 100.64C374.062 100.96 372.262 101.12 370.422 101.12H347.262V101.84C347.262 104.8 348.382 107.2 350.622 109.04C352.862 110.8 355.822 111.68 359.502 111.68C361.982 111.68 364.102 111.32 365.862 110.6C367.622 109.8 369.182 109.04 370.542 108.32C371.902 107.6 373.222 107.24 374.502 107.24C375.942 107.24 377.182 107.72 378.222 108.68C379.262 109.64 380.022 110.76 380.502 112.04C381.062 113.32 381.342 114.44 381.342 115.4C381.342 116.92 380.422 118.52 378.582 120.2C376.742 121.88 374.142 123.32 370.782 124.52C367.502 125.64 363.582 126.2 359.022 126.2ZM347.262 90.68H362.142C363.022 90.68 363.662 90.48 364.062 90.08C364.462 89.68 364.662 88.92 364.662 87.8C364.662 86.2 364.222 84.88 363.342 83.84C362.542 82.72 361.462 81.92 360.102 81.44C358.822 80.88 357.422 80.6 355.902 80.6C354.462 80.6 353.062 80.88 351.702 81.44C350.422 81.92 349.342 82.72 348.462 83.84C347.662 84.88 347.262 86.2 347.262 87.8V90.68Z" fill="#006D77"/>
<mask id="path-2-outside-1_189_13" maskUnits="userSpaceOnUse" x="1" y="29" width="99" height="98" fill="black">
<rect fill="white" x="1" y="29" width="99" height="98"/>
<path d="M14.76 123C12.04 123 9.8 122.4 8.04 121.2C6.36 120 5.52 118.68 5.52 117.24V38.88C5.52 37.2 6.36 35.84 8.04 34.8C9.8 33.76 12.04 33.24 14.76 33.24C17.32 33.24 19.52 33.76 21.36 34.8C23.2 35.84 24.12 37.2 24.12 38.88V74.28C25.24 71.96 27.08 69.88 29.64 68.04C32.2 66.12 35.32 65.16 39 65.16C42.68 65.16 46.04 66.32 49.08 68.64C52.2 70.88 54.68 73.92 56.52 77.76C58.44 81.52 59.4 85.72 59.4 90.36V117.24C59.4 119.16 58.4 120.6 56.4 121.56C54.48 122.52 52.36 123 50.04 123C47.88 123 45.8 122.52 43.8 121.56C41.8 120.6 40.8 119.16 40.8 117.24V90.36C40.8 88.84 40.4 87.4 39.6 86.04C38.8 84.68 37.76 83.56 36.48 82.68C35.2 81.8 33.76 81.36 32.16 81.36C30.88 81.36 29.6 81.72 28.32 82.44C27.12 83.16 26.12 84.2 25.32 85.56C24.52 86.84 24.12 88.44 24.12 90.36V117.24C24.12 118.68 23.2 120 21.36 121.2C19.52 122.4 17.32 123 14.76 123ZM86.0587 54.84C83.3387 54.84 81.0187 53.96 79.0987 52.2C77.1787 50.44 76.2187 48.44 76.2187 46.2C76.2187 43.88 77.1787 41.88 79.0987 40.2C81.0187 38.52 83.3387 37.68 86.0587 37.68C88.7787 37.68 91.0587 38.52 92.8987 40.2C94.8187 41.88 95.7787 43.88 95.7787 46.2C95.7787 48.44 94.8187 50.44 92.8987 52.2C91.0587 53.96 88.7787 54.84 86.0587 54.84ZM86.0587 123C83.3387 123 81.0987 122.4 79.3387 121.2C77.6587 120 76.8187 118.68 76.8187 117.24V71.52C76.8187 69.84 77.6587 68.48 79.3387 67.44C81.0987 66.4 83.3387 65.88 86.0587 65.88C88.6187 65.88 90.8187 66.4 92.6587 67.44C94.4987 68.48 95.4187 69.84 95.4187 71.52V117.24C95.4187 118.68 94.4987 120 92.6587 121.2C90.8187 122.4 88.6187 123 86.0587 123Z"/>
</mask>
<path d="M14.76 123C12.04 123 9.8 122.4 8.04 121.2C6.36 120 5.52 118.68 5.52 117.24V38.88C5.52 37.2 6.36 35.84 8.04 34.8C9.8 33.76 12.04 33.24 14.76 33.24C17.32 33.24 19.52 33.76 21.36 34.8C23.2 35.84 24.12 37.2 24.12 38.88V74.28C25.24 71.96 27.08 69.88 29.64 68.04C32.2 66.12 35.32 65.16 39 65.16C42.68 65.16 46.04 66.32 49.08 68.64C52.2 70.88 54.68 73.92 56.52 77.76C58.44 81.52 59.4 85.72 59.4 90.36V117.24C59.4 119.16 58.4 120.6 56.4 121.56C54.48 122.52 52.36 123 50.04 123C47.88 123 45.8 122.52 43.8 121.56C41.8 120.6 40.8 119.16 40.8 117.24V90.36C40.8 88.84 40.4 87.4 39.6 86.04C38.8 84.68 37.76 83.56 36.48 82.68C35.2 81.8 33.76 81.36 32.16 81.36C30.88 81.36 29.6 81.72 28.32 82.44C27.12 83.16 26.12 84.2 25.32 85.56C24.52 86.84 24.12 88.44 24.12 90.36V117.24C24.12 118.68 23.2 120 21.36 121.2C19.52 122.4 17.32 123 14.76 123ZM86.0587 54.84C83.3387 54.84 81.0187 53.96 79.0987 52.2C77.1787 50.44 76.2187 48.44 76.2187 46.2C76.2187 43.88 77.1787 41.88 79.0987 40.2C81.0187 38.52 83.3387 37.68 86.0587 37.68C88.7787 37.68 91.0587 38.52 92.8987 40.2C94.8187 41.88 95.7787 43.88 95.7787 46.2C95.7787 48.44 94.8187 50.44 92.8987 52.2C91.0587 53.96 88.7787 54.84 86.0587 54.84ZM86.0587 123C83.3387 123 81.0987 122.4 79.3387 121.2C77.6587 120 76.8187 118.68 76.8187 117.24V71.52C76.8187 69.84 77.6587 68.48 79.3387 67.44C81.0987 66.4 83.3387 65.88 86.0587 65.88C88.6187 65.88 90.8187 66.4 92.6587 67.44C94.4987 68.48 95.4187 69.84 95.4187 71.52V117.24C95.4187 118.68 94.4987 120 92.6587 121.2C90.8187 122.4 88.6187 123 86.0587 123Z" fill="#18A3B0" fill-opacity="0.2"/>
<path d="M8.04 121.2L5.71505 124.455L5.75058 124.48L5.78665 124.505L8.04 121.2ZM8.04 34.8L6.00508 31.3563L5.96961 31.3773L5.93459 31.3989L8.04 34.8ZM21.36 34.8L19.3918 38.2822L19.3918 38.2823L21.36 34.8ZM24.12 74.28H20.12L27.7222 76.019L24.12 74.28ZM29.64 68.04L31.9745 71.2881L32.0075 71.2644L32.04 71.24L29.64 68.04ZM49.08 68.64L46.6533 71.8198L46.6997 71.8552L46.7472 71.8893L49.08 68.64ZM56.52 77.76L52.9127 79.4885L52.9346 79.5341L52.9576 79.5791L56.52 77.76ZM56.4 121.56L54.6691 117.954L54.64 117.968L54.6111 117.982L56.4 121.56ZM39.6 86.04L43.0477 84.0119H43.0477L39.6 86.04ZM36.48 82.68L38.7461 79.3838H38.7461L36.48 82.68ZM28.32 82.44L26.359 78.9537L26.3101 78.9812L26.262 79.01L28.32 82.44ZM25.32 85.56L28.712 87.68L28.7405 87.6344L28.7677 87.5881L25.32 85.56ZM14.76 119C12.622 119 11.2268 118.532 10.2933 117.895L5.78665 124.505C8.37322 126.268 11.458 127 14.76 127V119ZM10.365 117.945C9.81623 117.553 9.59638 117.275 9.52465 117.162C9.47631 117.087 9.52 117.134 9.52 117.24H1.52C1.52 120.471 3.46926 122.851 5.71505 124.455L10.365 117.945ZM9.52 117.24V38.88H1.52V117.24H9.52ZM9.52 38.88C9.52 38.7965 9.52995 38.7564 9.53302 38.7453C9.53572 38.7356 9.53955 38.724 9.55319 38.702C9.5793 38.6597 9.71081 38.4701 10.1454 38.2011L5.93459 31.3989C3.31996 33.0175 1.52 35.5509 1.52 38.88H9.52ZM10.0749 38.2437C11.0473 37.6691 12.5265 37.24 14.76 37.24V29.24C11.5535 29.24 8.55273 29.8509 6.00508 31.3563L10.0749 38.2437ZM14.76 37.24C16.7754 37.24 18.2671 37.6465 19.3918 38.2822L23.3282 31.3177C20.7729 29.8734 17.8646 29.24 14.76 29.24V37.24ZM19.3918 38.2823C19.9231 38.5826 20.0881 38.7987 20.1169 38.8412C20.1294 38.8597 20.1243 38.8563 20.119 38.8386C20.1139 38.8217 20.12 38.8298 20.12 38.88H28.12C28.12 35.3704 26.0456 32.8537 23.3282 31.3177L19.3918 38.2823ZM20.12 38.88V74.28H28.12V38.88H20.12ZM27.7222 76.019C28.494 74.4202 29.8363 72.8249 31.9745 71.2881L27.3055 64.7919C24.3237 66.9351 21.986 69.4998 20.5178 72.541L27.7222 76.019ZM32.04 71.24C33.8067 69.915 36.0502 69.16 39 69.16V61.16C34.5898 61.16 30.5933 62.325 27.24 64.84L32.04 71.24ZM39 69.16C41.7669 69.16 44.2811 70.0094 46.6533 71.8198L51.5067 65.4602C47.7989 62.6306 43.5931 61.16 39 61.16V69.16ZM46.7472 71.8893C49.2639 73.6962 51.3309 76.1872 52.9127 79.4885L60.1273 76.0315C58.0291 71.6528 55.1361 68.0638 51.4128 65.3907L46.7472 71.8893ZM52.9576 79.5791C54.5623 82.7217 55.4 86.2887 55.4 90.36H63.4C63.4 85.1513 62.3177 80.3183 60.0824 75.9409L52.9576 79.5791ZM55.4 90.36V117.24H63.4V90.36H55.4ZM55.4 117.24C55.4 117.37 55.3835 117.433 55.3787 117.449C55.3748 117.462 55.3724 117.467 55.3645 117.478C55.351 117.498 55.2078 117.695 54.6691 117.954L58.1309 125.166C59.5922 124.465 60.9491 123.462 61.9355 122.042C62.945 120.588 63.4 118.934 63.4 117.24H55.4ZM54.6111 117.982C53.2906 118.643 51.7902 119 50.04 119V127C52.9298 127 55.6694 126.397 58.1889 125.138L54.6111 117.982ZM50.04 119C48.4957 119 47.0058 118.662 45.5309 117.954L42.0691 125.166C44.5942 126.378 47.2643 127 50.04 127V119ZM45.5309 117.954C44.9922 117.695 44.849 117.498 44.8355 117.478C44.8276 117.467 44.8252 117.462 44.8213 117.449C44.8165 117.433 44.8 117.37 44.8 117.24H36.8C36.8 118.934 37.255 120.588 38.2645 122.042C39.251 123.462 40.6078 124.465 42.0691 125.166L45.5309 117.954ZM44.8 117.24V90.36H36.8V117.24H44.8ZM44.8 90.36C44.8 88.099 44.1949 85.9622 43.0477 84.0119L36.1523 88.0681C36.6051 88.8378 36.8 89.581 36.8 90.36H44.8ZM43.0477 84.0119C41.9561 82.1562 40.5157 80.6004 38.7461 79.3838L34.2139 85.9762C35.0043 86.5196 35.6439 87.2038 36.1523 88.0681L43.0477 84.0119ZM38.7461 79.3838C36.7783 78.031 34.5433 77.36 32.16 77.36V85.36C32.9767 85.36 33.6217 85.569 34.2139 85.9762L38.7461 79.3838ZM32.16 77.36C30.0974 77.36 28.1484 77.9472 26.359 78.9537L30.281 85.9263C31.0516 85.4928 31.6626 85.36 32.16 85.36V77.36ZM26.262 79.01C24.4191 80.1158 22.9673 81.6704 21.8723 83.5319L28.7677 87.5881C29.2727 86.7296 29.8209 86.2042 30.378 85.87L26.262 79.01ZM21.928 83.44C20.6358 85.5075 20.12 87.8921 20.12 90.36H28.12C28.12 88.9879 28.4042 88.1725 28.712 87.68L21.928 83.44ZM20.12 90.36V117.24H28.12V90.36H20.12ZM20.12 117.24C20.12 117.166 20.1332 117.091 20.1528 117.033C20.171 116.978 20.1823 116.974 20.1484 117.023C20.0683 117.138 19.8117 117.434 19.1749 117.85L23.5451 124.55C25.8892 123.022 28.12 120.641 28.12 117.24H20.12ZM19.1749 117.85C18.0866 118.559 16.6752 119 14.76 119V127C17.9648 127 20.9534 126.241 23.5451 124.55L19.1749 117.85ZM79.0987 52.2L76.3959 55.1486L79.0987 52.2ZM79.0987 40.2L76.4647 37.1897V37.1897L79.0987 40.2ZM92.8988 40.2L90.2017 43.1539L90.2329 43.1824L90.2647 43.2103L92.8988 40.2ZM92.8988 52.2L90.1958 49.2514L90.1645 49.2801L90.1339 49.3094L92.8988 52.2ZM79.3387 121.2L77.0138 124.455L77.0493 124.48L77.0854 124.505L79.3387 121.2ZM79.3387 67.44L77.3038 63.9963L77.2684 64.0173L77.2333 64.0389L79.3387 67.44ZM92.6587 67.44L94.627 63.9577L92.6587 67.44ZM92.6587 121.2L90.4737 117.85L92.6587 121.2ZM86.0587 50.84C84.2908 50.84 82.9488 50.3029 81.8016 49.2514L76.3959 55.1486C79.0887 57.6171 82.3867 58.84 86.0587 58.84V50.84ZM81.8016 49.2514C80.5607 48.1138 80.2188 47.1332 80.2188 46.2H72.2188C72.2188 49.7468 73.7968 52.7662 76.3959 55.1486L81.8016 49.2514ZM80.2188 46.2C80.2188 45.1566 80.5837 44.2158 81.7328 43.2103L76.4647 37.1897C73.7738 39.5442 72.2188 42.6034 72.2188 46.2H80.2188ZM81.7328 43.2103C82.8728 42.2127 84.238 41.68 86.0587 41.68V33.68C82.4395 33.68 79.1646 34.8273 76.4647 37.1897L81.7328 43.2103ZM86.0587 41.68C87.8801 41.68 89.1689 42.211 90.2017 43.1539L95.5958 37.246C92.9486 34.829 89.6774 33.68 86.0587 33.68V41.68ZM90.2647 43.2103C91.4138 44.2158 91.7787 45.1566 91.7787 46.2H99.7787C99.7787 42.6034 98.2237 39.5442 95.5328 37.1897L90.2647 43.2103ZM91.7787 46.2C91.7787 47.1332 91.4368 48.1138 90.1958 49.2514L95.6016 55.1486C98.2007 52.7662 99.7787 49.7468 99.7787 46.2H91.7787ZM90.1339 49.3094C89.0923 50.3057 87.826 50.84 86.0587 50.84V58.84C89.7315 58.84 93.0252 57.6143 95.6636 55.0906L90.1339 49.3094ZM86.0587 119C83.9207 119 82.5255 118.532 81.5921 117.895L77.0854 124.505C79.672 126.268 82.7568 127 86.0587 127V119ZM81.6637 117.945C81.115 117.553 80.8951 117.275 80.8234 117.162C80.7751 117.087 80.8187 117.134 80.8187 117.24H72.8187C72.8187 120.471 74.768 122.851 77.0138 124.455L81.6637 117.945ZM80.8187 117.24V71.52H72.8187V117.24H80.8187ZM80.8187 71.52C80.8187 71.4365 80.8287 71.3964 80.8318 71.3853C80.8345 71.3756 80.8383 71.3641 80.8519 71.342C80.8781 71.2997 81.0096 71.1101 81.4442 70.8411L77.2333 64.0389C74.6187 65.6575 72.8187 68.1909 72.8187 71.52H80.8187ZM81.3737 70.8837C82.346 70.3091 83.8252 69.88 86.0587 69.88V61.88C82.8523 61.88 79.8515 62.4909 77.3038 63.9963L81.3737 70.8837ZM86.0587 69.88C88.0742 69.88 89.5658 70.2866 90.6905 70.9222L94.627 63.9577C92.0717 62.5134 89.1633 61.88 86.0587 61.88V69.88ZM90.6905 70.9222C91.2219 71.2226 91.3869 71.4387 91.4156 71.4812C91.4281 71.4997 91.4231 71.4963 91.4177 71.4786C91.4126 71.4617 91.4187 71.4698 91.4187 71.52H99.4187C99.4187 68.0105 97.3444 65.4937 94.627 63.9577L90.6905 70.9222ZM91.4187 71.52V117.24H99.4187V71.52H91.4187ZM91.4187 117.24C91.4187 117.166 91.432 117.091 91.4515 117.033C91.4698 116.978 91.481 116.974 91.4472 117.023C91.3671 117.138 91.1105 117.434 90.4737 117.85L94.8438 124.55C97.188 123.022 99.4187 120.641 99.4187 117.24H91.4187ZM90.4737 117.85C89.3854 118.559 87.9739 119 86.0587 119V127C89.2636 127 92.2521 126.241 94.8438 124.55L90.4737 117.85Z" fill="#006D77" mask="url(#path-2-outside-1_189_13)"/>
<path d="M358 93.5C367.665 93.5 375.5 85.665 375.5 76C375.5 66.335 367.665 58.5 358 58.5C348.335 58.5 340.5 66.335 340.5 76C340.5 85.665 348.335 93.5 358 93.5Z" fill="#006D77" stroke="white" stroke-width="3" stroke-linecap="round" stroke-linejoin="round"/>
<path d="M351 79.5C351 79.5 353.625 83 358 83C362.375 83 365 79.5 365 79.5" stroke="#FFD677" stroke-width="3" stroke-linecap="round" stroke-linejoin="round"/>
<path d="M352.75 70.75H352.767" stroke="#FFD677" stroke-width="4" stroke-linecap="round" stroke-linejoin="round"/>
<path d="M363.25 70.75H363.267" stroke="#FFD677" stroke-width="4" stroke-linecap="round" stroke-linejoin="round"/>
</svg>
